<?xml version="1.0" standalone="no"?>
<!DOCTYPE svg PUBLIC "-//W3C//DTD SVG 20010904//EN"
 "http://www.w3.org/TR/2001/REC-SVG-20010904/DTD/svg10.dtd">
<svg version="1.0" xmlns="http://www.w3.org/2000/svg"
 width="104.000000pt" height="104.000000pt" viewBox="0 0 104.000000 104.000000"
 preserveAspectRatio="xMidYMid meet">
<metadata>
Created by potrace 1.14, written by Peter Selinger 2001-2017
</metadata>
<g transform="translate(0.000000,104.000000) scale(0.100000,-0.100000)"
fill="#000000" stroke="none">
<path d="M420 996 c-5 -13 -12 -39 -15 -58 -8 -43 -14 -51 -46 -65 -22 -10
-32 -8 -69 14 -60 36 -80 33 -133 -23 -26 -27 -47 -53 -47 -58 0 -5 13 -30 30
-57 25 -42 28 -52 19 -78 -9 -26 -18 -32 -66 -42 -30 -7 -61 -18 -68 -25 -7
-8 -13 -39 -13 -78 0 -76 9 -88 85 -106 42 -9 53 -17 63 -41 13 -30 12 -35
-19 -84 -11 -16 -20 -36 -20 -43 -1 -17 107 -122 126 -122 8 0 34 12 58 26 61
35 81 27 101 -44 24 -84 34 -92 119 -92 46 0 76 5 82 13 5 6 15 37 23 68 11
50 16 57 46 68 30 11 38 10 77 -13 24 -14 50 -26 58 -26 18 0 109 91 109 108
0 7 -11 30 -25 52 -44 70 -26 111 57 130 29 7 58 16 64 21 11 9 13 137 2 155
-4 6 -34 17 -67 24 -46 10 -61 18 -70 37 -16 35 -14 50 14 91 14 20 25 44 25
52 0 18 -86 104 -114 114 -12 4 -37 -4 -70 -22 -69 -39 -91 -30 -107 45 -18
77 -26 83 -120 83 -75 0 -80 -1 -89 -24z m196 -259 c17 -9 47 -34 67 -56 109
-120 54 -323 -101 -377 -55 -18 -147 -10 -188 18 -43 28 -91 99 -100 145 -9
46 1 124 20 161 22 44 101 109 144 119 52 13 122 9 158 -10z"/>
<path d="M445 655 c-21 -20 -31 -55 -26 -88 1 -4 -6 -10 -14 -13 -20 -8 -22
-168 -3 -180 15 -9 227 -13 229 -5 1 3 2 41 3 85 2 59 -2 82 -13 94 -8 8 -16
24 -16 36 -2 42 -18 68 -51 82 -49 20 -82 17 -109 -11z m93 -24 c8 -5 12 -22
10 -42 -3 -34 -10 -37 -68 -30 -16 2 -12 48 6 65 17 18 32 20 52 7z"/>
</g>
</svg>
