<svg width="22" height="7" viewBox="0 0 22 7" fill="none" xmlns="http://www.w3.org/2000/svg">
<path fill-rule="evenodd" clip-rule="evenodd" d="M2.48988 0.923828L0.0556641 6.31067H2.96977L3.33103 5.45179H4.1568L4.51806 6.31067H7.72567V5.65515L8.01149 6.31067H9.67071L9.95653 5.64129V6.31067H16.6275L17.4386 5.47409L18.1982 6.31067L21.6245 6.3176L19.1826 3.63229L21.6245 0.923828H18.2513L17.4617 1.74495L16.7261 0.923828H9.46896L8.84579 2.31422L8.208 0.923828H5.29998V1.55705L4.97648 0.923828H2.48988ZM12.4516 1.68886H16.2824L17.4541 2.95447L18.6635 1.68886H19.8351L18.0549 3.63163L19.8351 5.552H18.6103L17.4387 4.27169L16.2231 5.552H12.4516V1.68886ZM13.3977 3.19478V2.48915V2.48847H15.788L16.831 3.61695L15.7418 4.7516H13.3977V3.98126H15.4875V3.19478H13.3977ZM3.05383 1.68886H4.4743L6.08891 5.34171V1.68886H7.64498L8.89209 4.30794L10.0414 1.68886H11.5897V5.55428H10.6476L10.6399 2.52536L9.26644 5.55428H8.42369L7.04251 2.52536V5.55428H5.1044L4.73696 4.68771H2.75187L2.3852 5.55352H1.34678L3.05383 1.68886ZM3.09082 3.88666L3.74483 2.34292L4.39807 3.88666H3.09082Z" fill="#EEEEEE"/>
</svg>
