<svg width="19" height="11" viewBox="0 0 19 11" fill="none" xmlns="http://www.w3.org/2000/svg">
<g clip-path="url(#clip0_93_682)">
<path d="M0.3125 0.322266H0.519038V5.80623H0.3125V0.322266ZM0.725575 0.322266H0.932113V5.80623H0.725575V0.322266ZM1.96572 0.322266H2.17226V5.80623H1.96572V0.322266ZM5.98596 0.322266H6.1925V5.80623H5.98596V0.322266ZM7.32997 0.322266H7.53651V5.80623H7.32997V0.322266ZM8.63326 0.322266H8.8398V5.80623H8.63326V0.322266ZM8.96913 0.322266H9.17566V5.80623H8.96941L8.96913 0.322266ZM9.30548 0.322266H9.51202V5.80623H9.30548V0.322266ZM9.68349 0.322266H9.89003V5.80623H9.68356L9.68349 0.322266ZM10.0614 0.322266H10.268V5.80623H10.0614V0.322266ZM11.1121 0.322266H11.3187V5.80623H11.1119L11.1121 0.322266ZM13.7173 0.322266H13.9238V5.80623H13.7173V0.322266ZM16.4347 0.322266H16.6412V5.80623H16.4347L16.4347 0.322266ZM17.178 0.322266H17.3846V5.80623H17.178V0.322266ZM17.7154 0.322266H17.9219V5.80623H17.7154V0.322266ZM18.046 0.322266H18.2526V5.80623H18.046V0.322266ZM3.32968 0.322266H3.53621V5.80623H3.32968V0.322266ZM1.26296 0.322266H1.63488V5.80623H1.26296V0.322266ZM3.7173 0.322266H4.08915V5.80623H3.7173V0.322266ZM5.44066 0.322266H5.81251V5.80623H5.44066V0.322266ZM6.32295 0.322266H6.69481V5.80623H6.32295V0.322266ZM7.70954 0.322266H8.08139V5.80623H7.70954V0.322266ZM11.6627 0.322266H12.2411V5.80623H11.6627V0.322266ZM12.4182 0.322266H12.8725V5.80623H12.4177L12.4182 0.322266ZM13.2154 0.322266H13.5873V5.80623H13.2154V0.322266ZM14.2696 0.322266H14.8896V5.80623H14.2696V0.322266ZM15.4838 0.322266H16.1039V5.80623H15.4838V0.322266ZM2.37901 0.322266H3.12271V5.80623H2.37901V0.322266ZM4.30665 0.322266H4.88504V5.80623H4.30665V0.322266Z" fill="#EEEEEE"/>
<path d="M0.579102 10.675V7.53609H1.75695C1.95378 7.52849 2.15011 7.56087 2.33407 7.63126C2.47508 7.69154 2.59395 7.79403 2.67432 7.92463C2.75398 8.04821 2.79673 8.19195 2.79756 8.33898C2.79757 8.47305 2.75973 8.60439 2.68839 8.7179C2.60802 8.84294 2.49361 8.94241 2.35861 9.00462C2.53185 9.04917 2.68579 9.14911 2.797 9.28922C2.8999 9.42602 2.95379 9.59345 2.95001 9.76459C2.95123 9.90665 2.9194 10.0471 2.85703 10.1747C2.80431 10.2891 2.7251 10.3894 2.62596 10.4671C2.52276 10.5412 2.40592 10.5941 2.28217 10.6227C2.11626 10.6607 1.94631 10.6784 1.77612 10.6753L0.579102 10.675ZM0.994866 8.85515H1.67366C1.80623 8.86031 1.9389 8.84807 2.06828 8.81873C2.16298 8.79473 2.24694 8.73978 2.30685 8.66261C2.36263 8.58238 2.39079 8.48619 2.3871 8.38855C2.38902 8.29161 2.363 8.19618 2.31215 8.11363C2.26364 8.03527 2.18823 7.97727 2.10003 7.95051C1.94353 7.91451 1.7829 7.89974 1.62247 7.9066H0.995008L0.994866 8.85515ZM0.994866 10.3047H1.77626C1.87078 10.3071 1.96535 10.3022 2.05909 10.2898C2.14388 10.276 2.22527 10.2463 2.29893 10.2021C2.36624 10.1586 2.42086 10.0981 2.45725 10.0267C2.49974 9.94561 2.52116 9.85514 2.51954 9.7636C2.52246 9.65438 2.49103 9.547 2.42967 9.45659C2.36909 9.36983 2.28127 9.3058 2.18014 9.27466C2.03061 9.23421 1.87584 9.21647 1.72103 9.22205H0.994866V10.3047ZM3.55704 9.14653C3.5307 8.69924 3.68139 8.25955 3.97655 7.92244C4.11566 7.77635 4.28417 7.66142 4.47095 7.58522C4.65773 7.50902 4.85854 7.47329 5.06015 7.48037C5.33545 7.47663 5.60649 7.54854 5.84373 7.68825C6.07434 7.82458 6.25943 8.02613 6.37567 8.26749C6.50095 8.53037 6.56354 8.81874 6.55852 9.10991C6.56379 9.40591 6.49793 9.69886 6.36648 9.96413C6.24712 10.2055 6.05656 10.4045 5.82054 10.5342C5.58721 10.6628 5.32482 10.7295 5.05838 10.728C4.77959 10.7326 4.50514 10.6586 4.26645 10.5144C4.03679 10.3752 3.85283 10.1719 3.7372 9.92948C3.61797 9.68574 3.55633 9.41787 3.55704 9.14653ZM3.98546 9.15311C3.96763 9.47971 4.07773 9.80042 4.2924 10.0472C4.38924 10.1533 4.50771 10.2373 4.6398 10.2936C4.77189 10.35 4.91453 10.3774 5.0581 10.3739C5.20252 10.3775 5.34602 10.3499 5.47877 10.2929C5.61152 10.2359 5.73038 10.1509 5.82719 10.0437C6.04379 9.78179 6.15219 9.44707 6.13024 9.10793C6.13598 8.87831 6.09246 8.65013 6.00261 8.43875C5.92343 8.25646 5.79148 8.10205 5.62376 7.99541C5.45615 7.8901 5.26168 7.83544 5.06375 7.83801C4.92349 7.83588 4.7842 7.86156 4.65391 7.91357C4.52363 7.96557 4.40495 8.04287 4.3047 8.141C4.18611 8.27943 4.09669 8.44039 4.04183 8.61422C3.98697 8.78806 3.9678 8.97119 3.98546 9.15262V9.15311ZM7.23965 10.6752V7.53609H7.65491V10.3044H9.20066V10.675L7.23965 10.6752ZM9.8663 10.6752V7.53609H12.136V7.9066H10.2816V8.86823H12.0181V9.23654H10.2816V10.3047H12.2089V10.6753L9.8663 10.6752ZM13.7436 10.6752V7.9066H12.709V7.53609H15.197V7.9066H14.1586V10.675L13.7436 10.6752ZM15.5801 9.14653C15.5541 8.69917 15.7051 8.25953 16.0006 7.92265C16.1397 7.77656 16.3082 7.66162 16.495 7.58542C16.6818 7.50922 16.8826 7.47349 17.0842 7.48058C17.3595 7.47683 17.6305 7.54874 17.8678 7.68847C18.0984 7.82477 18.2835 8.02633 18.3997 8.2677C18.525 8.53057 18.5876 8.81895 18.5825 9.11012C18.5877 9.40616 18.5217 9.69911 18.3901 9.96434C18.2703 10.2062 18.0791 10.4053 17.8424 10.5348C17.609 10.6634 17.3466 10.7302 17.0802 10.7286C16.8012 10.7332 16.5266 10.6591 16.2879 10.5147C16.0586 10.3753 15.8751 10.1719 15.7599 9.92969C15.6407 9.68586 15.5792 9.41791 15.5801 9.14653ZM16.0085 9.15311C15.9907 9.47971 16.1008 9.80042 16.3154 10.0472C16.4123 10.1533 16.5307 10.2373 16.6628 10.2936C16.7949 10.35 16.9376 10.3774 17.0811 10.3739C17.226 10.378 17.37 10.3506 17.5032 10.2937C17.6365 10.2368 17.7558 10.1516 17.8529 10.0441C18.0695 9.78221 18.1779 9.44749 18.1559 9.10835C18.1604 8.87845 18.1155 8.65025 18.0243 8.43917C17.9451 8.25689 17.8132 8.10249 17.6454 7.99583C17.4779 7.8906 17.2836 7.83595 17.0858 7.83844C16.9455 7.83631 16.8062 7.86198 16.6759 7.91399C16.5456 7.96599 16.4269 8.04329 16.3267 8.14142C16.2083 8.27987 16.1191 8.44079 16.0645 8.61453C16.0098 8.78827 15.9907 8.97127 16.0085 9.15254V9.15311Z" fill="#EEEEEE"/>
</g>
<defs>
<clipPath id="clip0_93_682">
<rect width="18.2712" height="10.4069" fill="white" transform="translate(0.3125 0.322266)"/>
</clipPath>
</defs>
</svg>
