<svg width="33" height="12" viewBox="0 0 33 12" fill="none" xmlns="http://www.w3.org/2000/svg">
<path d="M16.1652 5.68825C16.671 5.68825 17.1019 5.50795 17.3878 5.17373L17.0184 4.82192C16.7941 5.06819 16.517 5.18692 16.196 5.18692C15.5584 5.18692 15.0966 4.73837 15.0966 4.10511C15.0966 3.47186 15.5584 3.0233 16.196 3.0233C16.517 3.0233 16.7941 3.14204 17.0184 3.3839L17.3878 3.03649C17.1019 2.70227 16.671 2.52197 16.1696 2.52197C15.2242 2.52197 14.5205 3.18601 14.5205 4.10511C14.5205 5.02421 15.2242 5.68825 16.1652 5.68825Z" fill="#EEEEEE"/>
<path d="M18.8523 5.67506C19.5823 5.67506 20.1056 5.17373 20.1056 4.47011C20.1056 3.7665 19.5823 3.26957 18.8523 3.26957C18.1311 3.26957 17.6034 3.7665 17.6034 4.47011C17.6034 5.17373 18.1311 5.67506 18.8523 5.67506ZM18.8523 5.20451C18.4565 5.20451 18.1575 4.91867 18.1575 4.47011C18.1575 4.02156 18.4565 3.73571 18.8523 3.73571C19.2525 3.73571 19.5515 4.02156 19.5515 4.47011C19.5515 4.91867 19.2525 5.20451 18.8523 5.20451Z" fill="#EEEEEE"/>
<path d="M23.5953 3.26957C23.2215 3.26957 22.9048 3.41908 22.7157 3.66095C22.553 3.3971 22.2672 3.26957 21.9242 3.26957C21.6032 3.26957 21.3305 3.3839 21.1546 3.59499V3.29595H20.6313V5.64427H21.181V4.45252C21.181 3.98638 21.4272 3.7489 21.7923 3.7489C22.1265 3.7489 22.32 3.95119 22.32 4.36897V5.64427H22.8697V4.45252C22.8697 3.98638 23.1203 3.7489 23.4809 3.7489C23.8152 3.7489 24.0086 3.95119 24.0086 4.36897V5.64427H24.5583V4.29861C24.5583 3.59059 24.1626 3.26957 23.5953 3.26957Z" fill="#EEEEEE"/>
<path d="M26.5625 3.26957C26.2415 3.26957 25.9688 3.37951 25.7841 3.60378V3.29595H25.2608V6.49741H25.8105V5.35843C25.9996 5.57391 26.2634 5.67506 26.5625 5.67506C27.2485 5.67506 27.7542 5.20011 27.7542 4.47011C27.7542 3.74451 27.2485 3.26957 26.5625 3.26957ZM26.5009 5.20451C26.1051 5.20451 25.8017 4.91867 25.8017 4.47011C25.8017 4.02156 26.1051 3.73571 26.5009 3.73571C26.8967 3.73571 27.1957 4.02156 27.1957 4.47011C27.1957 4.91867 26.8967 5.20451 26.5009 5.20451Z" fill="#EEEEEE"/>
<path d="M28.7989 3.63896V3.29595H28.2756V5.64427H28.8253V4.50529C28.8253 4.02595 29.0891 3.77969 29.5069 3.77969C29.5465 3.77969 29.586 3.78409 29.6344 3.79288V3.26957C29.243 3.26957 28.9572 3.3927 28.7989 3.63896Z" fill="#EEEEEE"/>
<path d="M30.985 3.26957C30.6068 3.26957 30.2418 3.36631 29.9911 3.55981L30.2066 3.95999C30.3825 3.81487 30.6551 3.72692 30.919 3.72692C31.3104 3.72692 31.5039 3.91601 31.5039 4.23704V4.27222H30.897C30.1846 4.27222 29.9207 4.58005 29.9207 4.97144C29.9207 5.38042 30.2594 5.67506 30.7959 5.67506C31.1477 5.67506 31.4027 5.56072 31.5347 5.35843V5.64427H32.0536V4.26782C32.0536 3.59059 31.6622 3.26957 30.985 3.26957ZM30.9102 5.27487C30.6288 5.27487 30.4616 5.14734 30.4616 4.94945C30.4616 4.77794 30.5628 4.63722 30.9366 4.63722H31.5039V4.90987C31.4115 5.15174 31.1785 5.27487 30.9102 5.27487Z" fill="#EEEEEE"/>
<path d="M15.6947 9.86034C16.539 9.86034 16.9392 9.43817 16.9392 8.94563C16.9392 7.81545 15.1142 8.24202 15.1142 7.58677C15.1142 7.3537 15.3077 7.169 15.7826 7.169C16.0509 7.169 16.3543 7.24816 16.6314 7.41087L16.8117 6.96671C16.5434 6.79081 16.1564 6.69406 15.787 6.69406C14.9427 6.69406 14.5469 7.11623 14.5469 7.61316C14.5469 8.75654 16.3763 8.32117 16.3763 8.98521C16.3763 9.21389 16.174 9.38539 15.6947 9.38539C15.3165 9.38539 14.9251 9.24467 14.6788 9.04678L14.481 9.49094C14.736 9.71082 15.2154 9.86034 15.6947 9.86034Z" fill="#EEEEEE"/>
<path d="M19.6609 8.65539C19.6609 7.92099 19.1596 7.44165 18.4736 7.44165C17.7744 7.44165 17.2598 7.94298 17.2598 8.6422C17.2598 9.34142 17.77 9.84714 18.5571 9.84714C18.9617 9.84714 19.2915 9.71521 19.5026 9.46455L19.208 9.12594C19.0409 9.29744 18.8342 9.381 18.5703 9.381C18.1613 9.381 17.8755 9.16112 17.8095 8.8181H19.6521C19.6565 8.76533 19.6609 8.69937 19.6609 8.65539ZM18.4736 7.88141C18.8342 7.88141 19.0936 8.11449 19.1376 8.4531H17.8051C17.8579 8.11009 18.1174 7.88141 18.4736 7.88141Z" fill="#EEEEEE"/>
<path d="M21.9964 7.46804V7.78027C21.8029 7.5472 21.5126 7.44165 21.1828 7.44165C20.51 7.44165 19.9955 7.89021 19.9955 8.57184C19.9955 9.25347 20.51 9.71082 21.1828 9.71082C21.4994 9.71082 21.7765 9.60967 21.97 9.39859V9.52172C21.97 9.99666 21.7413 10.2341 21.2224 10.2341C20.897 10.2341 20.5627 10.1242 20.3561 9.95268L20.1098 10.3661C20.378 10.5859 20.8134 10.7003 21.2532 10.7003C22.0755 10.7003 22.5197 10.3133 22.5197 9.46015V7.46804H21.9964ZM21.2664 9.24467C20.8486 9.24467 20.5496 8.97202 20.5496 8.57184C20.5496 8.17605 20.8486 7.9078 21.2664 7.9078C21.6797 7.9078 21.9788 8.17605 21.9788 8.57184C21.9788 8.97202 21.6797 9.24467 21.2664 9.24467Z" fill="#EEEEEE"/>
<path d="M24.9662 7.46804V8.65539C24.9662 9.12594 24.7068 9.36341 24.3242 9.36341C23.9768 9.36341 23.7745 9.16112 23.7745 8.73455V7.46804H23.2248V8.80931C23.2248 9.51732 23.6337 9.84714 24.2362 9.84714C24.5397 9.84714 24.8167 9.73281 24.9926 9.51732V9.81636H25.5159V7.46804H24.9662Z" fill="#EEEEEE"/>
<path d="M26.759 7.81105V7.46804H26.2357V9.81636H26.7854V8.67738C26.7854 8.19804 27.0492 7.95178 27.467 7.95178C27.5066 7.95178 27.5461 7.95617 27.5945 7.96497V7.44165C27.2031 7.44165 26.9173 7.56479 26.759 7.81105Z" fill="#EEEEEE"/>
<path d="M28.9451 7.44165C28.5669 7.44165 28.2019 7.5384 27.9512 7.73189L28.1667 8.13208C28.3426 7.98696 28.6152 7.899 28.8791 7.899C29.2705 7.899 29.464 8.0881 29.464 8.40913V8.44431H28.8571C28.1447 8.44431 27.8808 8.75214 27.8808 9.14353C27.8808 9.5525 28.2195 9.84714 28.756 9.84714C29.1078 9.84714 29.3628 9.73281 29.4948 9.53052V9.81636H30.0137V8.43991C30.0137 7.76268 29.6223 7.44165 28.9451 7.44165ZM28.8703 9.44696C28.5889 9.44696 28.4217 9.31943 28.4217 9.12154C28.4217 8.95003 28.5229 8.80931 28.8967 8.80931H29.464V9.08196C29.3716 9.32383 29.1386 9.44696 28.8703 9.44696Z" fill="#EEEEEE"/>
<path d="M5.60222 0.544922L0.883789 2.04786V6.55668C0.883789 9.0471 2.99603 11.0655 5.60222 11.0655C8.20842 11.0655 10.3207 9.0471 10.3207 6.55668V2.04786L5.60222 0.544922ZM9.43595 6.55668C9.43595 8.57978 7.71937 10.2201 5.60222 10.2201C3.48507 10.2201 1.7685 8.57978 1.7685 6.55668V2.68192L5.60222 1.39033L9.43595 2.68192V6.55668Z" fill="#EEEEEE"/>
<path d="M3.95998 5.37266C3.91898 5.3333 3.87025 5.30207 3.81658 5.28076C3.76292 5.25945 3.70537 5.24848 3.64726 5.24848C3.58914 5.24848 3.5316 5.25945 3.47794 5.28076C3.42427 5.30207 3.37554 5.3333 3.33454 5.37266C3.29335 5.41183 3.26067 5.4584 3.23837 5.50968C3.21607 5.56096 3.20459 5.61595 3.20459 5.67148C3.20459 5.72702 3.21607 5.782 3.23837 5.83328C3.26067 5.88456 3.29335 5.93113 3.33454 5.97031L4.92455 7.48969L4.95036 7.51435C4.98914 7.55147 5.0352 7.58093 5.08591 7.60103C5.13662 7.62113 5.19098 7.63147 5.24587 7.63147C5.30077 7.63147 5.35513 7.62113 5.40584 7.60103C5.45655 7.58093 5.50261 7.55147 5.54139 7.51435L8.28767 4.89007C8.32652 4.85301 8.35735 4.809 8.37838 4.76054C8.39941 4.71208 8.41024 4.66014 8.41024 4.60768C8.41024 4.55522 8.39941 4.50328 8.37838 4.45483C8.35735 4.40637 8.32652 4.36235 8.28767 4.32529L8.25326 4.29242C8.21448 4.25529 8.16842 4.22583 8.11771 4.20574C8.067 4.18564 8.01264 4.17529 7.95774 4.17529C7.90285 4.17529 7.84849 4.18564 7.79778 4.20574C7.74707 4.22583 7.70101 4.25529 7.66223 4.29242L5.24526 6.60084L3.95998 5.37266Z" fill="#EEEEEE"/>
</svg>
