<svg width="54" height="54" viewBox="0 0 54 54" fill="none" xmlns="http://www.w3.org/2000/svg">
<path d="M52.8011 22.3018L46.6071 20.7785C46.2342 19.6037 45.7559 18.4651 45.178 17.3765C46.108 15.8284 48.0624 12.5702 48.0624 12.5702C48.244 12.2676 48.3191 11.9131 48.276 11.5629C48.2329 11.2127 48.074 10.887 47.8245 10.6375L43.3503 6.16328C43.1012 5.91308 42.7754 5.75366 42.425 5.71053C42.0746 5.66739 41.7199 5.74303 41.4176 5.92534L36.6035 8.8098C35.521 8.2369 34.3892 7.76273 33.2216 7.39304L31.6983 1.19897C31.613 0.856622 31.4156 0.552648 31.1376 0.335394C30.8596 0.11814 30.5169 8.28213e-05 30.1641 0L23.8359 0C23.1098 0 22.4763 0.494437 22.3018 1.19886C22.3018 1.19886 21.2466 5.52203 20.78 7.39146C19.5368 7.78486 18.3345 8.29706 17.1895 8.92097L12.1978 5.92534C11.5736 5.55451 10.7795 5.65038 10.2651 6.16328L5.79087 10.6375C5.54138 10.887 5.38244 11.2127 5.33933 11.5629C5.29622 11.9131 5.3714 12.2676 5.55293 12.5702L8.63979 17.7257C8.14269 18.7065 7.72574 19.7259 7.39304 20.7739L1.19897 22.3018C0.856622 22.3871 0.552639 22.5845 0.335382 22.8625C0.118124 23.1405 6.95903e-05 23.4831 0 23.8359L0 30.1641C0 30.8902 0.494437 31.5237 1.19886 31.6982L7.39452 33.2215C7.76999 34.4127 8.2581 35.5699 8.84988 36.6807L6.08755 41.2846C5.90602 41.5871 5.83084 41.9417 5.87395 42.2919C5.91706 42.6421 6.076 42.9678 6.32549 43.2173L10.7997 47.6915C11.3111 48.2029 12.1082 48.3002 12.7324 47.9294C12.7324 47.9294 15.83 46.0724 17.3472 45.1639C18.445 45.7492 19.5941 46.2327 20.7801 46.6084L22.3019 52.801C22.4763 53.5057 23.1098 54 23.8359 54H30.1641C30.5169 53.9999 30.8595 53.8819 31.1375 53.6646C31.4155 53.4474 31.6129 53.1435 31.6982 52.8011L33.22 46.6085C34.4347 46.224 35.61 45.7248 36.7301 45.1176C38.289 46.0523 41.4175 47.9294 41.4175 47.9294C42.0401 48.3017 42.8373 48.206 43.3502 47.6915L47.8244 43.2173C48.0739 42.9678 48.2328 42.6421 48.2759 42.2919C48.319 41.9417 48.2438 41.5871 48.0623 41.2846L45.218 36.5462C45.7788 35.4814 46.2436 34.3688 46.607 33.2215L52.801 31.6982C53.1434 31.6129 53.4474 31.4156 53.6646 31.1376C53.8819 30.8596 54 30.5169 54 30.1641V23.8359C53.9999 23.4831 53.8819 23.1405 53.6647 22.8625C53.4474 22.5845 53.1435 22.3871 52.8011 22.3018ZM27 38.0742C20.8943 38.0742 15.9258 33.1057 15.9258 27C15.9258 20.8943 20.8943 15.9258 27 15.9258C33.1057 15.9258 38.0742 20.8943 38.0742 27C38.0742 33.1057 33.1057 38.0742 27 38.0742Z" fill="url(#paint0_linear_93_853)"/>
<defs>
<linearGradient id="paint0_linear_93_853" x1="27" y1="0" x2="27" y2="54" gradientUnits="userSpaceOnUse">
<stop stop-color="#838383"/>
<stop offset="1" stop-color="#E8E9E9"/>
</linearGradient>
</defs>
</svg>
