<svg width="18" height="11" viewBox="0 0 18 11" fill="none" xmlns="http://www.w3.org/2000/svg">
<path fill-rule="evenodd" clip-rule="evenodd" d="M12.2342 10.5849C15.0356 10.5849 17.3066 8.28753 17.3066 5.45358C17.3066 2.61963 15.0356 0.322266 12.2342 0.322266C10.9786 0.322266 9.82959 0.783759 8.94381 1.54822C8.05805 0.783795 6.90904 0.322326 5.65349 0.322326C2.85206 0.322326 0.581055 2.61969 0.581055 5.45364C0.581055 8.28759 2.85206 10.585 5.65349 10.585C6.90907 10.585 8.05811 10.1235 8.94388 9.35901C9.82965 10.1234 10.9787 10.5849 12.2342 10.5849Z" fill="#EEEEEE"/>
<path fill-rule="evenodd" clip-rule="evenodd" d="M8.94385 9.35907C10.0345 8.41789 10.726 7.01743 10.726 5.45358C10.726 3.88973 10.0345 2.48927 8.94385 1.54809C9.8296 0.78371 10.9786 0.322266 12.2341 0.322266C15.0355 0.322266 17.3065 2.61963 17.3065 5.45358C17.3065 8.28753 15.0355 10.5849 12.2341 10.5849C10.9786 10.5849 9.8296 10.1235 8.94385 9.35907Z" fill="#EEEEEE"/>
<path fill-rule="evenodd" clip-rule="evenodd" d="M8.94429 9.35883C10.0349 8.41765 10.7265 7.01719 10.7265 5.45334C10.7265 3.88949 10.0349 2.48903 8.94429 1.54785C7.85366 2.48903 7.16211 3.88949 7.16211 5.45334C7.16211 7.01719 7.85366 8.41765 8.94429 9.35883Z" fill="#EEEEEE"/>
</svg>
