<svg width="20" height="7" viewBox="0 0 20 7" fill="none" xmlns="http://www.w3.org/2000/svg">
<path d="M8.01172 6.42592V2.5901C8.01172 2.42229 8.04478 2.25613 8.10901 2.1011C8.17324 1.94607 8.26738 1.80521 8.38605 1.68657C8.50473 1.56793 8.64562 1.47383 8.80067 1.40964C8.95572 1.34546 9.12189 1.31245 9.2897 1.3125H10.421C10.759 1.3132 11.0829 1.44795 11.3216 1.68719C11.5604 1.92643 11.6944 2.25061 11.6944 2.58859V3.40501C11.6944 3.74395 11.5598 4.06901 11.3201 4.30867C11.0805 4.54834 10.7554 4.68299 10.4165 4.68299H8.81644" stroke="#EEEEEE" stroke-width="0.278972" stroke-linecap="round" stroke-linejoin="round"/>
<path d="M12.0117 1.31152H12.5019C12.6411 1.31152 12.7745 1.36679 12.8728 1.46516C12.9712 1.56353 13.0265 1.69695 13.0265 1.83606V4.702" stroke="#EEEEEE" stroke-width="0.278972" stroke-linecap="round" stroke-linejoin="round"/>
<path d="M12.9208 0.867798L12.6983 0.644934C12.6851 0.631798 12.6747 0.616193 12.6675 0.599013C12.6604 0.581833 12.6567 0.563415 12.6567 0.544815C12.6567 0.526214 12.6604 0.507797 12.6675 0.490616C12.6747 0.473436 12.6851 0.457832 12.6983 0.444696L12.9208 0.222209C12.9339 0.20904 12.9495 0.198591 12.9667 0.191462C12.9839 0.184333 13.0023 0.180664 13.0209 0.180664C13.0395 0.180664 13.0579 0.184333 13.0751 0.191462C13.0923 0.198591 13.1079 0.20904 13.121 0.222209L13.3439 0.444696C13.357 0.457832 13.3675 0.473436 13.3746 0.490616C13.3817 0.507797 13.3854 0.526214 13.3854 0.544815C13.3854 0.563415 13.3817 0.581833 13.3746 0.599013C13.3675 0.616193 13.357 0.631798 13.3439 0.644934L13.121 0.867798C13.1079 0.880967 13.0923 0.891415 13.0751 0.898544C13.0579 0.905673 13.0395 0.909342 13.0209 0.909342C13.0023 0.909342 12.9839 0.905673 12.9667 0.898544C12.9495 0.891415 12.9339 0.880967 12.9208 0.867798" fill="#EEEEEE"/>
<path d="M13.9702 1.30908H14.4574C14.708 1.30913 14.9484 1.40868 15.1256 1.58587L16.2652 2.72508C16.3003 2.76025 16.3419 2.78816 16.3877 2.80721C16.4336 2.82625 16.4827 2.83605 16.5324 2.83605C16.582 2.83605 16.6312 2.82625 16.677 2.80721C16.7229 2.78816 16.7645 2.76025 16.7996 2.72508L17.9361 1.59002C18.0239 1.50225 18.128 1.43263 18.2427 1.38514C18.3574 1.33765 18.4802 1.31321 18.6043 1.31323H19.0003" stroke="#EEEEEE" stroke-width="0.278972" stroke-linecap="round" stroke-linejoin="round"/>
<path d="M13.9702 4.6765H14.4574C14.708 4.67645 14.9484 4.5769 15.1256 4.39971L16.2652 3.26088C16.3003 3.2257 16.3419 3.19779 16.3877 3.17875C16.4336 3.15971 16.4827 3.1499 16.5324 3.1499C16.582 3.1499 16.6312 3.15971 16.677 3.17875C16.7229 3.19779 16.7645 3.2257 16.7996 3.26088L17.9361 4.39556C18.0239 4.48333 18.128 4.55295 18.2427 4.60044C18.3574 4.64793 18.4802 4.67237 18.6043 4.67235H19.0003" stroke="#EEEEEE" stroke-width="0.278972" stroke-linecap="round" stroke-linejoin="round"/>
<path d="M5.10726 5.40435C4.98697 5.40472 4.8678 5.38121 4.75666 5.33519C4.64551 5.28916 4.54461 5.22154 4.45979 5.13624L3.52497 4.20368C3.49196 4.17199 3.44798 4.1543 3.40222 4.1543C3.35646 4.1543 3.31248 4.17199 3.27948 4.20368L2.34126 5.14152C2.25644 5.22682 2.15554 5.29444 2.04439 5.34047C1.93325 5.38649 1.81408 5.41 1.69379 5.40963H1.50977L2.69347 6.59372C2.87109 6.77119 3.11191 6.87088 3.36301 6.87088C3.6141 6.87088 3.85492 6.77119 4.03254 6.59372L5.21964 5.40624L5.10726 5.40435Z" fill="#EEEEEE"/>
<path d="M1.69401 2.0979C1.81429 2.09762 1.93344 2.12117 2.04457 2.16719C2.1557 2.2132 2.25661 2.28078 2.34148 2.36602L3.2797 3.30423C3.31228 3.33672 3.35642 3.35497 3.40244 3.35497C3.44846 3.35497 3.4926 3.33672 3.52519 3.30423L4.46001 2.36941C4.54488 2.28417 4.64579 2.2166 4.75692 2.17058C4.86805 2.12456 4.9872 2.10101 5.10749 2.10129H5.22061L4.03351 0.914195C3.94561 0.826229 3.84124 0.756447 3.72636 0.708836C3.61148 0.661226 3.48833 0.636719 3.36398 0.636719C3.23962 0.636719 3.11648 0.661226 3.0016 0.708836C2.88672 0.756447 2.78235 0.826229 2.69445 0.914195L1.51074 2.0979H1.69401Z" fill="#EEEEEE"/>
<path d="M6.20222 3.08331L5.48573 2.36683C5.46953 2.37331 5.45228 2.37676 5.43483 2.37701H5.10864C4.93883 2.37771 4.77619 2.44548 4.65612 2.56556L3.71979 3.49849C3.67818 3.54017 3.62874 3.57322 3.57431 3.59574C3.51989 3.61826 3.46155 3.62981 3.40266 3.62972C3.28365 3.62993 3.16944 3.58286 3.08514 3.49887L2.14693 2.56066C2.02686 2.44058 1.86422 2.37281 1.69441 2.37211H1.29356C1.27701 2.3718 1.26065 2.36848 1.24529 2.3623L0.525036 3.08256C0.43707 3.17046 0.367288 3.27483 0.319677 3.38971C0.272067 3.5046 0.247559 3.62773 0.247559 3.75209C0.247559 3.87645 0.272067 3.99959 0.319677 4.11447C0.367288 4.22935 0.43707 4.33373 0.525036 4.42163L1.24529 5.14188C1.26065 5.1357 1.27701 5.13238 1.29356 5.13208H1.69441C1.86419 5.13125 2.02679 5.0635 2.14693 4.94353L3.08514 4.00531C3.17065 3.92373 3.28429 3.87821 3.40247 3.87821C3.52065 3.87821 3.63429 3.92373 3.71979 4.00531L4.65462 4.94013C4.77475 5.0601 4.93735 5.12786 5.10713 5.12868H5.43332C5.45081 5.12887 5.4681 5.13246 5.48423 5.13924L6.20071 4.42276C6.37818 4.24513 6.47788 4.00431 6.47788 3.75322C6.47788 3.50213 6.37818 3.26131 6.20071 3.08369" fill="#EEEEEE"/>
<path d="M8.98583 6.09978C8.92647 6.10244 8.86756 6.11141 8.8101 6.12655V6.36035C8.85407 6.37582 8.90038 6.3836 8.94699 6.38335C9.06427 6.38335 9.1197 6.34376 9.1197 6.24043C9.1197 6.14352 9.07407 6.09978 8.98583 6.09978V6.09978ZM8.77051 6.53381V6.07187H8.80294L8.80633 6.09186C8.86614 6.07586 8.92742 6.066 8.98922 6.06244C9.03204 6.05949 9.07452 6.07178 9.10914 6.09714C9.12809 6.11556 9.14266 6.13799 9.1518 6.16279C9.16094 6.18759 9.1644 6.21412 9.16193 6.24043C9.16418 6.26978 9.15833 6.29919 9.14504 6.32545C9.13174 6.35171 9.1115 6.37382 9.08651 6.38939C9.04422 6.41023 8.99753 6.42058 8.95038 6.41955C8.9027 6.41927 8.85532 6.41203 8.80972 6.39806V6.53381H8.77051Z" fill="#EEEEEE"/>
<path d="M9.45606 6.09828C9.33879 6.09828 9.28675 6.13599 9.28675 6.23819C9.28675 6.34038 9.33841 6.38299 9.45606 6.38299C9.57372 6.38299 9.625 6.34528 9.625 6.24347C9.625 6.14165 9.57334 6.09828 9.45606 6.09828V6.09828ZM9.6069 6.38299C9.56176 6.41092 9.50904 6.4241 9.45606 6.4207C9.40311 6.42387 9.35046 6.41071 9.30522 6.38299C9.28411 6.3662 9.26753 6.3444 9.257 6.31957C9.24646 6.29474 9.2423 6.26767 9.24489 6.24083C9.24247 6.21394 9.24671 6.18687 9.25723 6.16201C9.26776 6.13715 9.28424 6.11526 9.30522 6.09828C9.35038 6.07038 9.40309 6.05721 9.45606 6.06057C9.50903 6.05728 9.56172 6.07045 9.6069 6.09828C9.62788 6.1151 9.64437 6.13685 9.65489 6.16159C9.66542 6.18633 9.66966 6.2133 9.66724 6.24007C9.66982 6.26703 9.66566 6.29421 9.65513 6.31916C9.64459 6.3441 9.62802 6.36604 9.6069 6.38299" fill="#EEEEEE"/>
<path d="M10.1614 6.4097L10.0309 6.12914H10.0282L9.89965 6.4097H9.86609L9.72656 6.07031H9.77031L9.88608 6.35427H9.88871L10.0147 6.07031H10.0524L10.1817 6.35427H10.1844L10.2975 6.07031H10.3397L10.2006 6.4097H10.1614Z" fill="#EEEEEE"/>
<path d="M10.5894 6.09758C10.4808 6.09758 10.4442 6.14584 10.4386 6.21561H10.7425C10.7395 6.1383 10.6999 6.09758 10.5917 6.09758H10.5894ZM10.5917 6.41924C10.5418 6.42454 10.4916 6.41111 10.451 6.38153C10.4316 6.36367 10.4163 6.34165 10.4066 6.3171C10.3968 6.29255 10.3926 6.26611 10.3945 6.23974C10.393 6.21237 10.3979 6.18504 10.4089 6.1599C10.4198 6.13477 10.4364 6.11252 10.4574 6.09494C10.4969 6.07033 10.543 6.05848 10.5894 6.061C10.6368 6.05807 10.684 6.0695 10.7248 6.0938C10.7738 6.12661 10.7833 6.18431 10.7833 6.24992H10.4359C10.4359 6.31931 10.4601 6.38115 10.5913 6.38115C10.6501 6.37975 10.7086 6.37319 10.7663 6.36154V6.39699C10.7077 6.40923 10.6481 6.4163 10.5883 6.41811" fill="#EEEEEE"/>
<path d="M10.896 6.40985V6.07046H10.9284L10.9318 6.09045C10.9861 6.07263 11.0426 6.06272 11.0996 6.06104H11.1045V6.09874H11.0951C11.0409 6.09992 10.9872 6.10894 10.9356 6.12552V6.40909L10.896 6.40985Z" fill="#EEEEEE"/>
<path d="M11.3345 6.0979C11.2259 6.0979 11.1889 6.14617 11.1837 6.21593H11.488C11.4846 6.13863 11.445 6.0979 11.3371 6.0979H11.3345ZM11.3371 6.41956C11.2872 6.42476 11.2371 6.41133 11.1965 6.38185C11.1778 6.36378 11.1634 6.34179 11.1542 6.31747C11.1451 6.29314 11.1415 6.26709 11.1437 6.2412C11.1422 6.21383 11.1471 6.18649 11.1581 6.16136C11.169 6.13622 11.1856 6.11398 11.2067 6.09639C11.2461 6.07178 11.2922 6.05993 11.3386 6.06245C11.3859 6.05955 11.433 6.07099 11.4736 6.09526C11.5227 6.12807 11.5321 6.18576 11.5321 6.25138H11.1852C11.1852 6.32076 11.2093 6.38261 11.3405 6.38261C11.3993 6.38118 11.4579 6.37462 11.5155 6.363V6.39845C11.4568 6.41067 11.3971 6.41773 11.3371 6.41956" fill="#EEEEEE"/>
<path d="M11.9605 6.12103C11.9167 6.10571 11.8705 6.09806 11.824 6.0984C11.7067 6.0984 11.6509 6.138 11.6509 6.24095C11.6509 6.34389 11.6966 6.3816 11.7852 6.3816C11.8444 6.37882 11.9031 6.3701 11.9605 6.35558V6.12103ZM11.9681 6.40989L11.9647 6.38952C11.9049 6.40561 11.8436 6.41559 11.7818 6.41931C11.7389 6.4226 11.6962 6.41013 11.6619 6.38424C11.6428 6.3659 11.6281 6.34349 11.6189 6.31868C11.6097 6.29387 11.6062 6.26729 11.6087 6.24095C11.6065 6.2117 11.6123 6.18241 11.6256 6.15627C11.6389 6.13013 11.6592 6.10816 11.6841 6.09275C11.7265 6.07139 11.7735 6.06089 11.821 6.0622C11.8684 6.06276 11.9155 6.06999 11.9609 6.0837V5.92871H12.0005V6.40989H11.9681Z" fill="#EEEEEE"/>
<path d="M12.5812 6.09954C12.5219 6.1022 12.463 6.11117 12.4055 6.12631V6.35936C12.4493 6.37537 12.4957 6.38341 12.5424 6.38311C12.6597 6.38311 12.7151 6.34352 12.7151 6.24019C12.7151 6.14328 12.6695 6.09954 12.5812 6.09954V6.09954ZM12.6823 6.38915C12.64 6.40999 12.5933 6.42034 12.5462 6.41931C12.4948 6.41878 12.4439 6.41013 12.3953 6.39367V6.40989H12.3682V5.92871H12.4059V6.08898C12.4646 6.074 12.5245 6.06466 12.585 6.06107C12.6278 6.05812 12.6703 6.07041 12.7049 6.09576C12.7239 6.11419 12.7384 6.13662 12.7476 6.16142C12.7567 6.18622 12.7602 6.21275 12.7577 6.23906C12.7599 6.26841 12.7541 6.29781 12.7408 6.32408C12.7275 6.35034 12.7073 6.37245 12.6823 6.38801" fill="#EEEEEE"/>
<path d="M12.8077 6.54153V6.50382C12.827 6.50382 12.8454 6.50721 12.8579 6.50721C12.8808 6.50909 12.9037 6.50324 12.9229 6.49059C12.9421 6.47795 12.9565 6.45924 12.9638 6.43745L12.9767 6.41068L12.7998 6.07129H12.8454L12.9963 6.36316H12.9989L13.143 6.07129H13.1878L12.9993 6.45103C12.9642 6.52003 12.9269 6.54266 12.8579 6.54266C12.8412 6.54342 12.8244 6.54304 12.8077 6.54153Z" fill="#EEEEEE"/>
<path d="M13.7338 6.21703H13.6022V6.33581H13.7342C13.8247 6.33581 13.859 6.32563 13.859 6.27585C13.859 6.22608 13.8119 6.21703 13.7338 6.21703V6.21703ZM13.7097 6.02471H13.6022V6.14538H13.71C13.7994 6.14538 13.8349 6.13482 13.8349 6.08429C13.8349 6.03376 13.79 6.02471 13.7097 6.02471V6.02471ZM13.9133 6.37805C13.865 6.40859 13.8066 6.4101 13.7002 6.4101H13.5V5.95117H13.6953C13.7873 5.95117 13.8435 5.95117 13.8903 5.98059C13.9059 5.98989 13.9186 6.00336 13.9269 6.01949C13.9352 6.03561 13.9389 6.05375 13.9374 6.07184C13.9386 6.09449 13.9321 6.11686 13.9189 6.13534C13.9058 6.15382 13.8868 6.16732 13.865 6.17366V6.1763C13.9239 6.1895 13.9619 6.21966 13.9619 6.2849C13.9634 6.30343 13.9596 6.32198 13.951 6.33845C13.9424 6.35491 13.9293 6.36863 13.9133 6.37805" fill="#EEEEEE"/>
<path d="M14.363 6.26788C14.3253 6.26449 14.2834 6.2626 14.2412 6.2626C14.1722 6.2626 14.1481 6.27655 14.1481 6.30823C14.1481 6.33991 14.1681 6.35348 14.2208 6.35348C14.2688 6.3518 14.3165 6.34511 14.363 6.3335V6.26788ZM14.383 6.41005L14.3804 6.38968C14.3205 6.40668 14.2589 6.41668 14.1967 6.41947C14.1609 6.42185 14.1252 6.41317 14.0945 6.39458C14.082 6.38511 14.072 6.37268 14.0654 6.3584C14.0588 6.34412 14.0559 6.32844 14.0568 6.31275C14.0559 6.29352 14.0609 6.27447 14.0711 6.25812C14.0812 6.24176 14.0961 6.22886 14.1138 6.22112C14.1543 6.20594 14.1976 6.19952 14.2408 6.20227C14.2763 6.20227 14.3238 6.20415 14.3634 6.20679V6.20227C14.3634 6.14947 14.3287 6.13213 14.2333 6.13213C14.1956 6.13213 14.1518 6.13401 14.1089 6.13816V6.06953C14.1564 6.06576 14.2099 6.06312 14.254 6.06312C14.3085 6.05832 14.3632 6.06918 14.4117 6.09442C14.4494 6.12194 14.4577 6.16003 14.4577 6.21056V6.4108L14.383 6.41005Z" fill="#EEEEEE"/>
<path d="M14.8991 6.40991V6.22136C14.8991 6.1599 14.8674 6.13765 14.8112 6.13765C14.7646 6.13965 14.7183 6.14686 14.6732 6.15914V6.4084H14.5801V6.06902H14.6555L14.6589 6.09013C14.7177 6.07305 14.7783 6.0628 14.8395 6.05959C14.8812 6.05635 14.9226 6.06872 14.9557 6.09428C14.9694 6.10806 14.9799 6.12471 14.9864 6.14303C14.9929 6.16135 14.9953 6.18089 14.9934 6.20025V6.40727L14.8991 6.40991Z" fill="#EEEEEE"/>
<path d="M15.2589 6.41923C15.214 6.42272 15.1693 6.41001 15.133 6.3834C15.1137 6.36518 15.0989 6.3428 15.0896 6.31796C15.0803 6.29312 15.0769 6.26649 15.0794 6.24011C15.0777 6.21214 15.0831 6.18419 15.0951 6.1589C15.1072 6.13362 15.1256 6.11185 15.1485 6.09568C15.1937 6.07032 15.2453 6.05866 15.297 6.06212C15.3347 6.06212 15.3743 6.06476 15.4162 6.06853V6.14093C15.3823 6.13791 15.3408 6.1349 15.3083 6.1349C15.2186 6.1349 15.1764 6.16318 15.1764 6.24086C15.1764 6.31854 15.208 6.34532 15.2816 6.34532C15.3294 6.34384 15.377 6.33803 15.4237 6.32797V6.39773C15.3696 6.41017 15.3144 6.41737 15.2589 6.41923Z" fill="#EEEEEE"/>
<path d="M15.7035 6.13332C15.6137 6.13332 15.5741 6.1616 15.5741 6.23853C15.5741 6.31546 15.6118 6.34827 15.7035 6.34827C15.7951 6.34827 15.8313 6.32074 15.8313 6.24381C15.8313 6.16688 15.7936 6.13332 15.7035 6.13332V6.13332ZM15.8656 6.38371C15.8164 6.41159 15.7599 6.42407 15.7035 6.41954C15.6468 6.42392 15.5901 6.41146 15.5406 6.38371C15.5185 6.36754 15.501 6.34588 15.4898 6.32089C15.4786 6.29589 15.4742 6.26842 15.4768 6.24117C15.4742 6.21382 15.4786 6.18624 15.4898 6.16113C15.501 6.13602 15.5185 6.11422 15.5406 6.09788C15.5902 6.07026 15.6469 6.05793 15.7035 6.06243C15.7598 6.0581 15.8162 6.07043 15.8656 6.09788C15.8875 6.11417 15.9049 6.13586 15.9159 6.16084C15.9269 6.18583 15.9313 6.21324 15.9286 6.24042C15.9313 6.2677 15.9269 6.29521 15.9158 6.3203C15.9048 6.34539 15.8875 6.36723 15.8656 6.38371" fill="#EEEEEE"/>
<path d="M16.4736 6.41946C16.4147 6.42318 16.3564 6.40624 16.3088 6.37157C16.2537 6.32632 16.2371 6.2558 16.2371 6.18001C16.2352 6.14232 16.2427 6.10474 16.2589 6.07069C16.2752 6.03664 16.2997 6.0072 16.3303 5.98505C16.3895 5.95229 16.4569 5.93723 16.5245 5.94168C16.5754 5.94168 16.6274 5.94508 16.6844 5.9496V6.03218C16.6357 6.02804 16.5754 6.02464 16.5286 6.02464C16.3978 6.02464 16.3423 6.07442 16.3423 6.18001C16.3423 6.28559 16.3936 6.33612 16.4902 6.33612C16.559 6.33386 16.6275 6.32464 16.6945 6.3086V6.3908C16.622 6.40779 16.548 6.41752 16.4736 6.41984" fill="#EEEEEE"/>
<path d="M16.9724 6.12251C16.894 6.12251 16.8638 6.15041 16.8593 6.20207H17.0856C17.0829 6.14702 17.0509 6.12251 16.9724 6.12251ZM16.9585 6.41928C16.9078 6.42386 16.8571 6.41052 16.8152 6.38157C16.796 6.36364 16.7812 6.3416 16.7718 6.3171C16.7624 6.29261 16.7587 6.2663 16.7609 6.24016C16.7594 6.21308 16.7644 6.18604 16.7754 6.16125C16.7864 6.13647 16.8031 6.11466 16.8242 6.09762C16.8688 6.07083 16.9206 6.05845 16.9724 6.06217C17.0236 6.059 17.0746 6.07079 17.1191 6.09611C17.1734 6.13382 17.178 6.1934 17.1787 6.26316H16.857C16.8593 6.31482 16.8868 6.34801 16.9819 6.34801C17.0423 6.34668 17.1025 6.34088 17.1621 6.33066V6.39703C17.0949 6.40978 17.0268 6.41722 16.9585 6.41928Z" fill="#EEEEEE"/>
<path d="M17.5985 6.40991V6.22136C17.5985 6.1599 17.5672 6.13765 17.511 6.13765C17.4643 6.13965 17.418 6.14686 17.373 6.15914V6.4084H17.2783V6.06902H17.3556L17.359 6.09013C17.4179 6.07302 17.4785 6.06277 17.5396 6.05959C17.5813 6.05635 17.6227 6.06872 17.6558 6.09428C17.6695 6.10806 17.68 6.12471 17.6865 6.14303C17.6931 6.16135 17.6954 6.18089 17.6935 6.20025V6.40727L17.5985 6.40991Z" fill="#EEEEEE"/>
<path d="M17.9612 6.41949C17.9403 6.42152 17.9192 6.41814 17.9 6.40969C17.8808 6.40124 17.8641 6.38799 17.8514 6.37122C17.8327 6.34044 17.824 6.3046 17.8266 6.26865V6.14195H17.7583V6.07181H17.8266L17.8367 5.96924H17.9205V6.07181H18.0536V6.14195H17.9205V6.25055C17.9191 6.27247 17.9223 6.29442 17.9299 6.31503C17.9356 6.32598 17.9446 6.33488 17.9556 6.34048C17.9666 6.34609 17.9791 6.34814 17.9913 6.34633C18.014 6.34595 18.0366 6.34368 18.0588 6.33955V6.40742C18.0267 6.41448 17.994 6.41852 17.9612 6.41949" fill="#EEEEEE"/>
<path d="M18.146 6.40985V6.07046H18.2214L18.2248 6.09158C18.2788 6.07335 18.3352 6.06306 18.3922 6.06104H18.4043V6.14173C18.3934 6.14173 18.3809 6.14173 18.3715 6.14173C18.3267 6.14189 18.2821 6.14772 18.2388 6.15908V6.40909L18.146 6.40985Z" fill="#EEEEEE"/>
<path d="M18.7498 6.26788C18.7102 6.26449 18.6698 6.26261 18.6276 6.26261C18.5586 6.26261 18.5344 6.27656 18.5344 6.30823C18.5344 6.33991 18.5548 6.35349 18.6076 6.35349C18.6555 6.35176 18.7032 6.34506 18.7498 6.3335V6.26788ZM18.7697 6.41005L18.766 6.39082C18.7061 6.40778 18.6445 6.41778 18.5823 6.42061C18.5464 6.42295 18.5106 6.41426 18.4798 6.39572C18.4673 6.3862 18.4573 6.37376 18.4507 6.3595C18.4441 6.34523 18.4412 6.32957 18.442 6.31389C18.4411 6.29411 18.4464 6.27453 18.4572 6.2579C18.4679 6.24127 18.4836 6.22841 18.502 6.22112C18.5424 6.20627 18.5854 6.20011 18.6283 6.20302C18.6638 6.20302 18.7117 6.20491 18.7513 6.20755V6.20227C18.7513 6.14948 18.7162 6.13213 18.6212 6.13213C18.5835 6.13213 18.5393 6.13401 18.4963 6.13816V6.06953C18.5442 6.06576 18.5978 6.06312 18.6419 6.06312C18.6962 6.05832 18.7508 6.06918 18.7992 6.09442C18.8369 6.12195 18.8455 6.16004 18.8455 6.21057V6.4108L18.7697 6.41005Z" fill="#EEEEEE"/>
<path d="M18.9653 5.92871H19.06V6.40989H18.9653V5.92871Z" fill="#EEEEEE"/>
</svg>
