<svg width="39" height="12" viewBox="0 0 39 12" fill="none" xmlns="http://www.w3.org/2000/svg">
<path d="M4.0334 6.67041C3.84408 6.67178 3.6607 6.73369 3.5125 6.84626C3.36429 6.95883 3.25981 7.11558 3.2157 7.29152C3.1716 7.46745 3.19041 7.65243 3.26915 7.81695C3.34788 7.98147 3.482 8.11606 3.65012 8.19925V9.16024H4.35338V8.22949C4.53494 8.15839 4.68505 8.02929 4.7781 7.86422C4.87115 7.69915 4.90138 7.50834 4.86362 7.32435C4.82585 7.14035 4.72245 6.97459 4.57104 6.85533C4.41963 6.73607 4.22961 6.67071 4.0334 6.67041Z" fill="#EEEEEE"/>
<path d="M6.81329 4.79208V3.35396C6.82839 2.62545 6.54089 1.92089 6.0137 1.39445C5.48651 0.868007 4.76255 0.562551 4.00025 0.544922C3.23795 0.562551 2.514 0.868007 1.98681 1.39445C1.45961 1.92089 1.17211 2.62545 1.18721 3.35396V4.79208H0.132324V10.5042C0.132324 10.6825 0.206417 10.8534 0.338304 10.9794C0.470191 11.1054 0.649068 11.1763 0.835584 11.1763H7.16492C7.35144 11.1763 7.53031 11.1054 7.6622 10.9794C7.79409 10.8534 7.86818 10.6825 7.86818 10.5042V4.79208H6.81329ZM1.89047 3.35396C1.87531 2.80366 2.08871 2.26999 2.48403 1.86956C2.87935 1.46914 3.42446 1.23451 4.00025 1.21694C4.57604 1.23451 5.12115 1.46914 5.51648 1.86956C5.9118 2.26999 6.12519 2.80366 6.11003 3.35396V4.79208H1.89047V3.35396ZM0.835584 10.5042V5.4641H7.16492V10.5042H0.835584Z" fill="#EEEEEE"/>
<path d="M13.8637 2.56565H12.5972V5.64398H13.1689V4.75566H13.8637C14.6728 4.75566 15.1742 4.33789 15.1742 3.66065C15.1742 2.97903 14.6728 2.56565 13.8637 2.56565ZM13.8373 4.27192H13.1689V3.04939H13.8373C14.3386 3.04939 14.5981 3.27367 14.5981 3.66065C14.5981 4.04764 14.3386 4.27192 13.8373 4.27192Z" fill="#EEEEEE"/>
<path d="M16.1941 3.63867V3.29565H15.6708V5.64398H16.2205V4.505C16.2205 4.02566 16.4844 3.77939 16.9022 3.77939C16.9417 3.77939 16.9813 3.78379 17.0297 3.79258V3.26927C16.6383 3.26927 16.3524 3.3924 16.1941 3.63867Z" fill="#EEEEEE"/>
<path d="M17.773 2.90866C17.9797 2.90866 18.1249 2.75915 18.1249 2.56565C18.1249 2.38535 17.9753 2.24902 17.773 2.24902C17.5708 2.24902 17.4212 2.39414 17.4212 2.57884C17.4212 2.76354 17.5708 2.90866 17.773 2.90866ZM17.496 5.64398H18.0457V3.29565H17.496V5.64398Z" fill="#EEEEEE"/>
<path d="M20.4383 3.29565L19.6863 5.03711L18.9563 3.29565H18.3846L19.3916 5.64398H19.9589L20.966 3.29565H20.4383Z" fill="#EEEEEE"/>
<path d="M22.1337 3.26927C21.7555 3.26927 21.3905 3.36602 21.1398 3.55951L21.3553 3.95969C21.5312 3.81457 21.8038 3.72662 22.0677 3.72662C22.4591 3.72662 22.6526 3.91572 22.6526 4.23674V4.27192H22.0457C21.3333 4.27192 21.0694 4.57975 21.0694 4.97114C21.0694 5.38012 21.408 5.67476 21.9446 5.67476C22.2964 5.67476 22.5514 5.56042 22.6834 5.35813V5.64398H23.2023V4.26752C23.2023 3.59029 22.8109 3.26927 22.1337 3.26927ZM22.0589 5.27458C21.7774 5.27458 21.6103 5.14705 21.6103 4.94915C21.6103 4.77765 21.7115 4.63692 22.0853 4.63692H22.6526V4.90958C22.5602 5.15144 22.3271 5.27458 22.0589 5.27458Z" fill="#EEEEEE"/>
<path d="M25.0066 5.67476C25.464 5.67476 25.829 5.47687 26.0093 5.12506L25.5871 4.87879C25.4464 5.10307 25.2353 5.20422 25.0022 5.20422C24.5977 5.20422 24.2898 4.92717 24.2898 4.46981C24.2898 4.01686 24.5977 3.73541 25.0022 3.73541C25.2353 3.73541 25.4464 3.83656 25.5871 4.06084L26.0093 3.81457C25.829 3.45837 25.464 3.26927 25.0066 3.26927C24.2634 3.26927 23.7357 3.7662 23.7357 4.46981C23.7357 5.17343 24.2634 5.67476 25.0066 5.67476Z" fill="#EEEEEE"/>
<path d="M26.7615 2.90866C26.9682 2.90866 27.1133 2.75915 27.1133 2.56565C27.1133 2.38535 26.9638 2.24902 26.7615 2.24902C26.5592 2.24902 26.4097 2.39414 26.4097 2.57884C26.4097 2.76354 26.5592 2.90866 26.7615 2.90866ZM26.4845 5.64398H27.0342V3.29565H26.4845V5.64398Z" fill="#EEEEEE"/>
<path d="M29.5059 2.38095V3.5859C29.3212 3.37041 29.0529 3.26927 28.7495 3.26927C28.0679 3.26927 27.5622 3.73981 27.5622 4.46981C27.5622 5.19982 28.0679 5.67476 28.7495 5.67476C29.0705 5.67476 29.3432 5.56482 29.5279 5.34054V5.64398H30.0556V2.38095H29.5059ZM28.8155 5.20422C28.4197 5.20422 28.1163 4.91837 28.1163 4.46981C28.1163 4.02126 28.4197 3.73541 28.8155 3.73541C29.2113 3.73541 29.5147 4.02126 29.5147 4.46981C29.5147 4.91837 29.2113 5.20422 28.8155 5.20422Z" fill="#EEEEEE"/>
<path d="M31.6718 3.26927C31.2936 3.26927 30.9286 3.36602 30.678 3.55951L30.8934 3.95969C31.0693 3.81457 31.342 3.72662 31.6059 3.72662C31.9972 3.72662 32.1907 3.91572 32.1907 4.23674V4.27192H31.5839C30.8715 4.27192 30.6076 4.57975 30.6076 4.97114C30.6076 5.38012 30.9462 5.67476 31.4827 5.67476C31.8345 5.67476 32.0896 5.56042 32.2215 5.35813V5.64398H32.7404V4.26752C32.7404 3.59029 32.3491 3.26927 31.6718 3.26927ZM31.5971 5.27458C31.3156 5.27458 31.1485 5.14705 31.1485 4.94915C31.1485 4.77765 31.2497 4.63692 31.6234 4.63692H32.1907V4.90958C32.0984 5.15144 31.8653 5.27458 31.5971 5.27458Z" fill="#EEEEEE"/>
<path d="M35.2176 2.38095V3.5859C35.0329 3.37041 34.7647 3.26927 34.4612 3.26927C33.7796 3.26927 33.2739 3.73981 33.2739 4.46981C33.2739 5.19982 33.7796 5.67476 34.4612 5.67476C34.7823 5.67476 35.0549 5.56482 35.2396 5.34054V5.64398H35.7673V2.38095H35.2176ZM34.5272 5.20422C34.1314 5.20422 33.828 4.91837 33.828 4.46981C33.828 4.02126 34.1314 3.73541 34.5272 3.73541C34.923 3.73541 35.2264 4.02126 35.2264 4.46981C35.2264 4.91837 34.923 5.20422 34.5272 5.20422Z" fill="#EEEEEE"/>
<path d="M38.694 4.48301C38.694 3.74861 38.1927 3.26927 37.5067 3.26927C36.8075 3.26927 36.2929 3.7706 36.2929 4.46981C36.2929 5.16903 36.8031 5.67476 37.5902 5.67476C37.9948 5.67476 38.3246 5.54283 38.5357 5.29217L38.2411 4.95355C38.074 5.12506 37.8673 5.20861 37.6034 5.20861C37.1945 5.20861 36.9086 4.98873 36.8427 4.64572H38.6852C38.6896 4.59295 38.694 4.52698 38.694 4.48301ZM37.5067 3.70903C37.8673 3.70903 38.1268 3.9421 38.1707 4.28072H36.8383C36.891 3.9377 37.1505 3.70903 37.5067 3.70903Z" fill="#EEEEEE"/>
<path d="M13.8637 6.73774H12.5972V9.81606H13.1689V8.92775H13.8637C14.6728 8.92775 15.1742 8.50997 15.1742 7.83274C15.1742 7.15111 14.6728 6.73774 13.8637 6.73774ZM13.8373 8.44401H13.1689V7.22148H13.8373C14.3386 7.22148 14.5981 7.44575 14.5981 7.83274C14.5981 8.21973 14.3386 8.44401 13.8373 8.44401Z" fill="#EEEEEE"/>
<path d="M16.1941 7.81075V7.46774H15.6708V9.81606H16.2205V8.67708C16.2205 8.19774 16.4844 7.95148 16.9022 7.95148C16.9417 7.95148 16.9813 7.95588 17.0297 7.96467V7.44136C16.6383 7.44136 16.3524 7.56449 16.1941 7.81075Z" fill="#EEEEEE"/>
<path d="M18.53 9.84685C19.26 9.84685 19.7833 9.34552 19.7833 8.6419C19.7833 7.93829 19.26 7.44136 18.53 7.44136C17.8087 7.44136 17.281 7.93829 17.281 8.6419C17.281 9.34552 17.8087 9.84685 18.53 9.84685ZM18.53 9.3763C18.1342 9.3763 17.8351 9.09046 17.8351 8.6419C17.8351 8.19335 18.1342 7.9075 18.53 7.9075C18.9301 7.9075 19.2292 8.19335 19.2292 8.6419C19.2292 9.09046 18.9301 9.3763 18.53 9.3763Z" fill="#EEEEEE"/>
<path d="M21.5666 9.29715C21.4831 9.36311 21.3731 9.39389 21.2588 9.39389C21.0477 9.39389 20.9334 9.27076 20.9334 9.04208V7.92509H21.5622V7.48533H20.9334V6.94882H20.3837V7.48533H19.9967V7.92509H20.3837V9.05528C20.3837 9.57419 20.6783 9.84685 21.1928 9.84685C21.3907 9.84685 21.5886 9.79408 21.7206 9.68853L21.5666 9.29715Z" fill="#EEEEEE"/>
<path d="M24.303 8.6551C24.303 7.92069 23.8017 7.44136 23.1157 7.44136C22.4165 7.44136 21.902 7.94268 21.902 8.6419C21.902 9.34112 22.4121 9.84685 23.1992 9.84685C23.6038 9.84685 23.9336 9.71492 24.1447 9.46425L23.8501 9.12564C23.683 9.29715 23.4763 9.3807 23.2124 9.3807C22.8035 9.3807 22.5176 9.16082 22.4517 8.81781H24.2943C24.2987 8.76504 24.303 8.69907 24.303 8.6551ZM23.1157 7.88112C23.4763 7.88112 23.7358 8.11419 23.7797 8.45281H22.4473C22.5 8.10979 22.7595 7.88112 23.1157 7.88112Z" fill="#EEEEEE"/>
<path d="M26.6385 7.46774V7.77997C26.445 7.5469 26.1548 7.44136 25.8249 7.44136C25.1521 7.44136 24.6376 7.88991 24.6376 8.57154C24.6376 9.25317 25.1521 9.71052 25.8249 9.71052C26.1416 9.71052 26.4186 9.60938 26.6121 9.39829V9.52142C26.6121 9.99636 26.3834 10.2338 25.8645 10.2338C25.5391 10.2338 25.2049 10.1239 24.9982 9.95239L24.7519 10.3658C25.0202 10.5856 25.4555 10.7 25.8953 10.7C26.7176 10.7 27.1618 10.313 27.1618 9.45986V7.46774H26.6385ZM25.9085 9.24437C25.4907 9.24437 25.1917 8.97172 25.1917 8.57154C25.1917 8.17576 25.4907 7.9075 25.9085 7.9075C26.3219 7.9075 26.6209 8.17576 26.6209 8.57154C26.6209 8.97172 26.3219 9.24437 25.9085 9.24437Z" fill="#EEEEEE"/>
<path d="M28.1615 7.08075C28.3682 7.08075 28.5133 6.93123 28.5133 6.73774C28.5133 6.55744 28.3638 6.42111 28.1615 6.42111C27.9592 6.42111 27.8097 6.56623 27.8097 6.75093C27.8097 6.93563 27.9592 7.08075 28.1615 7.08075ZM27.8845 9.81606H28.4342V7.46774H27.8845V9.81606Z" fill="#EEEEEE"/>
<path d="M30.9059 6.55304V7.75798C30.7212 7.5425 30.453 7.44136 30.1495 7.44136C29.4679 7.44136 28.9622 7.9119 28.9622 8.6419C28.9622 9.3719 29.4679 9.84685 30.1495 9.84685C30.4706 9.84685 30.7432 9.73691 30.9279 9.51263V9.81606H31.4556V6.55304H30.9059ZM30.2155 9.3763C29.8197 9.3763 29.5163 9.09046 29.5163 8.6419C29.5163 8.19335 29.8197 7.9075 30.2155 7.9075C30.6113 7.9075 30.9147 8.19335 30.9147 8.6419C30.9147 9.09046 30.6113 9.3763 30.2155 9.3763Z" fill="#EEEEEE"/>
<path d="M33.0718 7.44136C32.6936 7.44136 32.3286 7.5381 32.078 7.7316L32.2935 8.13178C32.4694 7.98666 32.742 7.89871 33.0059 7.89871C33.3973 7.89871 33.5908 8.0878 33.5908 8.40883V8.44401H32.9839C32.2715 8.44401 32.0076 8.75184 32.0076 9.14323C32.0076 9.55221 32.3462 9.84685 32.8827 9.84685C33.2346 9.84685 33.4896 9.73251 33.6215 9.53022V9.81606H34.1405V8.43961C34.1405 7.76238 33.7491 7.44136 33.0718 7.44136ZM32.9971 9.44666C32.7156 9.44666 32.5485 9.31913 32.5485 9.12124C32.5485 8.94973 32.6497 8.80901 33.0235 8.80901H33.5908V9.08166C33.4984 9.32353 33.2653 9.44666 32.9971 9.44666Z" fill="#EEEEEE"/>
</svg>
