<svg width="39" height="12" viewBox="0 0 39 12" fill="none" xmlns="http://www.w3.org/2000/svg">
<path d="M17.1976 5.68795C18.042 5.68795 18.4421 5.26578 18.4421 4.77325C18.4421 3.64306 16.6171 4.06963 16.6171 3.41439C16.6171 3.18132 16.8106 2.99662 17.2856 2.99662C17.5538 2.99662 17.8573 3.07577 18.1343 3.23848L18.3146 2.79433C18.0464 2.61842 17.6594 2.52167 17.29 2.52167C16.4456 2.52167 16.0499 2.94385 16.0499 3.44077C16.0499 4.58415 17.8793 4.14879 17.8793 4.81283C17.8793 5.0415 17.677 5.21301 17.1976 5.21301C16.8194 5.21301 16.428 5.07229 16.1818 4.87439L15.9839 5.31855C16.2389 5.53843 16.7183 5.68795 17.1976 5.68795Z" fill="#EEEEEE"/>
<path d="M19.8534 3.26927C19.4752 3.26927 19.1102 3.36602 18.8595 3.55951L19.075 3.95969C19.2509 3.81457 19.5235 3.72662 19.7874 3.72662C20.1788 3.72662 20.3723 3.91572 20.3723 4.23674V4.27192H19.7654C19.053 4.27192 18.7891 4.57975 18.7891 4.97114C18.7891 5.38012 19.1278 5.67476 19.6643 5.67476C20.0161 5.67476 20.2711 5.56042 20.4031 5.35813V5.64398H20.922V4.26752C20.922 3.59029 20.5306 3.26927 19.8534 3.26927ZM19.7786 5.27458C19.4972 5.27458 19.3301 5.14705 19.3301 4.94915C19.3301 4.77765 19.4312 4.63692 19.805 4.63692H20.3723V4.90957C20.2799 5.15144 20.0469 5.27458 19.7786 5.27458Z" fill="#EEEEEE"/>
<path d="M22.8852 5.12506C22.8016 5.19102 22.6917 5.22181 22.5773 5.22181C22.3663 5.22181 22.2519 5.09867 22.2519 4.87V3.753H22.8808V3.31324H22.2519V2.77674H21.7022V3.31324H21.3152V3.753H21.7022V4.88319C21.7022 5.40211 21.9969 5.67476 22.5114 5.67476C22.7093 5.67476 22.9072 5.62199 23.0391 5.51644L22.8852 5.12506Z" fill="#EEEEEE"/>
<path d="M23.7683 2.90866C23.975 2.90866 24.1201 2.75915 24.1201 2.56565C24.1201 2.38535 23.9706 2.24902 23.7683 2.24902C23.566 2.24902 23.4165 2.39414 23.4165 2.57884C23.4165 2.76354 23.566 2.90866 23.7683 2.90866ZM23.4913 5.64398H24.041V3.29565H23.4913V5.64398Z" fill="#EEEEEE"/>
<path d="M25.4881 5.67476C26.1477 5.67476 26.5523 5.38891 26.5523 4.94915C26.5523 4.03005 25.1011 4.45222 25.1011 3.97728C25.1011 3.82337 25.2594 3.71343 25.5936 3.71343C25.8179 3.71343 26.0422 3.7574 26.2665 3.88933L26.4775 3.47156C26.2665 3.34403 25.9102 3.26927 25.598 3.26927C24.9648 3.26927 24.5646 3.55951 24.5646 4.00367C24.5646 4.94036 26.0158 4.51819 26.0158 4.96674C26.0158 5.12946 25.8707 5.2262 25.5233 5.2262C25.2286 5.2262 24.912 5.12946 24.7053 4.99313L24.4942 5.4109C24.7053 5.56042 25.0967 5.67476 25.4881 5.67476Z" fill="#EEEEEE"/>
<path d="M27.98 2.79433C28.0943 2.79433 28.1999 2.8339 28.2834 2.89107L28.4373 2.4777C28.3142 2.38975 28.1295 2.35017 27.9404 2.35017C27.3951 2.35017 27.1005 2.67119 27.1005 3.16373V3.31324H26.7135V3.753H27.1005V5.64398H27.6502V3.753H28.279V3.31324H27.6326V3.17252C27.6326 2.92186 27.7513 2.79433 27.98 2.79433Z" fill="#EEEEEE"/>
<path d="M29.5032 3.26927C29.125 3.26927 28.76 3.36602 28.5093 3.55951L28.7248 3.95969C28.9007 3.81457 29.1734 3.72662 29.4372 3.72662C29.8286 3.72662 30.0221 3.91572 30.0221 4.23674V4.27192H29.4152C28.7028 4.27192 28.439 4.57975 28.439 4.97114C28.439 5.38012 28.7776 5.67476 29.3141 5.67476C29.6659 5.67476 29.921 5.56042 30.0529 5.35813V5.64398H30.5718V4.26752C30.5718 3.59029 30.1804 3.26927 29.5032 3.26927ZM29.4284 5.27458C29.147 5.27458 28.9799 5.14705 28.9799 4.94915C28.9799 4.77765 29.081 4.63692 29.4548 4.63692H30.0221V4.90957C29.9298 5.15144 29.6967 5.27458 29.4284 5.27458Z" fill="#EEEEEE"/>
<path d="M32.3718 5.20421C31.9672 5.20421 31.6594 4.92717 31.6594 4.46981C31.6594 4.01686 31.9672 3.73541 32.3718 3.73541C32.6048 3.73541 32.8159 3.83656 32.9567 4.06084L33.3788 3.81457C33.1985 3.45837 32.8335 3.26927 32.3762 3.26927C31.633 3.26927 31.1053 3.7662 31.1053 4.46981C31.1053 5.08988 31.5142 5.55163 32.1167 5.65277L32.0068 6.06175H32.1431C32.3102 6.06175 32.3762 6.12331 32.3762 6.20687C32.3762 6.30362 32.3058 6.36518 32.1431 6.36518C32.0332 6.36518 31.9364 6.34319 31.8441 6.29482L31.7429 6.55428C31.8529 6.61585 31.9892 6.64663 32.1475 6.64663C32.5081 6.64663 32.7456 6.48392 32.7456 6.22886C32.7456 6.03976 32.6224 5.89024 32.363 5.85946L32.4114 5.67476C32.8511 5.66596 33.2029 5.46807 33.3788 5.12506L32.9567 4.87879C32.8159 5.10307 32.6048 5.20421 32.3718 5.20421Z" fill="#EEEEEE"/>
<path d="M34.518 2.68439C34.6764 2.68439 34.8259 2.97463 35.1161 2.97463C35.3976 2.97463 35.5823 2.74156 35.5911 2.39854H35.2964C35.2876 2.55686 35.2041 2.64921 35.0809 2.64921C34.9226 2.64921 34.7731 2.35896 34.4829 2.35896C34.2014 2.35896 34.0167 2.58764 34.0079 2.94824H34.3026C34.3114 2.78113 34.3949 2.68439 34.518 2.68439ZM34.7511 3.26927C34.3729 3.26927 34.0079 3.36602 33.7573 3.55951L33.9727 3.95969C34.1486 3.81457 34.4213 3.72662 34.6852 3.72662C35.0765 3.72662 35.27 3.91572 35.27 4.23674V4.27192H34.6632C33.9508 4.27192 33.6869 4.57975 33.6869 4.97114C33.6869 5.38012 34.0255 5.67476 34.562 5.67476C34.9138 5.67476 35.1689 5.56042 35.3008 5.35813V5.64398H35.8197V4.26752C35.8197 3.59029 35.4283 3.26927 34.7511 3.26927ZM34.6764 5.27458C34.3949 5.27458 34.2278 5.14705 34.2278 4.94915C34.2278 4.77765 34.3289 4.63692 34.7027 4.63692H35.27V4.90957C35.1777 5.15144 34.9446 5.27458 34.6764 5.27458Z" fill="#EEEEEE"/>
<path d="M37.6021 5.67476C38.3321 5.67476 38.8554 5.17343 38.8554 4.46981C38.8554 3.7662 38.3321 3.26927 37.6021 3.26927C36.8809 3.26927 36.3532 3.7662 36.3532 4.46981C36.3532 5.17343 36.8809 5.67476 37.6021 5.67476ZM37.6021 5.20421C37.2063 5.20421 36.9073 4.91837 36.9073 4.46981C36.9073 4.02126 37.2063 3.73541 37.6021 3.73541C38.0023 3.73541 38.3013 4.02126 38.3013 4.46981C38.3013 4.91837 38.0023 5.20421 37.6021 5.20421Z" fill="#EEEEEE"/>
<path d="M18.3454 9.2004C18.1475 9.31474 17.932 9.35871 17.7121 9.35871C17.0613 9.35871 16.5996 8.90136 16.5996 8.2769C16.5996 7.63925 17.0613 7.19509 17.7165 7.19509C18.0464 7.19509 18.3234 7.30503 18.5653 7.5469L18.9259 7.19509C18.6356 6.86527 18.2047 6.69376 17.6902 6.69376C16.7271 6.69376 16.0235 7.3578 16.0235 8.2769C16.0235 9.196 16.7271 9.86004 17.6814 9.86004C18.1167 9.86004 18.5653 9.72811 18.8863 9.46865V8.24172H18.3454V9.2004Z" fill="#EEEEEE"/>
<path d="M20.4847 7.44136C20.1065 7.44136 19.7415 7.5381 19.4908 7.7316L19.7063 8.13178C19.8822 7.98666 20.1548 7.89871 20.4187 7.89871C20.8101 7.89871 21.0036 8.0878 21.0036 8.40883V8.44401H20.3967C19.6843 8.44401 19.4204 8.75184 19.4204 9.14323C19.4204 9.55221 19.7591 9.84685 20.2956 9.84685C20.6474 9.84685 20.9024 9.73251 21.0344 9.53022V9.81606H21.5533V8.43961C21.5533 7.76238 21.1619 7.44136 20.4847 7.44136ZM20.4099 9.44666C20.1285 9.44666 19.9613 9.31913 19.9613 9.12124C19.9613 8.94973 20.0625 8.80901 20.4363 8.80901H21.0036V9.08166C20.9112 9.32353 20.6782 9.44666 20.4099 9.44666Z" fill="#EEEEEE"/>
<path d="M22.7821 7.81075V7.46774H22.2588V9.81606H22.8085V8.67708C22.8085 8.19774 23.0723 7.95148 23.4901 7.95148C23.5297 7.95148 23.5692 7.95588 23.6176 7.96467V7.44136C23.2262 7.44136 22.9404 7.56449 22.7821 7.81075Z" fill="#EEEEEE"/>
<path d="M24.9682 7.44136C24.59 7.44136 24.225 7.5381 23.9743 7.7316L24.1898 8.13178C24.3657 7.98666 24.6383 7.89871 24.9022 7.89871C25.2936 7.89871 25.4871 8.0878 25.4871 8.40883V8.44401H24.8802C24.1678 8.44401 23.9039 8.75184 23.9039 9.14323C23.9039 9.55221 24.2426 9.84685 24.7791 9.84685C25.1309 9.84685 25.3859 9.73251 25.5179 9.53022V9.81606H26.0368V8.43961C26.0368 7.76238 25.6454 7.44136 24.9682 7.44136ZM24.8934 9.44666C24.612 9.44666 24.4448 9.31913 24.4448 9.12124C24.4448 8.94973 24.546 8.80901 24.9198 8.80901H25.4871V9.08166C25.3947 9.32353 25.1617 9.44666 24.8934 9.44666Z" fill="#EEEEEE"/>
<path d="M28.0747 7.44136C27.7317 7.44136 27.4459 7.55569 27.2656 7.77118V7.46774H26.7423V9.81606H27.292V8.62871C27.292 8.15816 27.5558 7.92069 27.9472 7.92069C28.299 7.92069 28.5057 8.12298 28.5057 8.54076V9.81606H29.0554V8.4704C29.0554 7.76238 28.6376 7.44136 28.0747 7.44136Z" fill="#EEEEEE"/>
<path d="M31.0104 9.29714C30.9269 9.36311 30.8169 9.39389 30.7026 9.39389C30.4915 9.39389 30.3772 9.27076 30.3772 9.04208V7.92509H31.006V7.48533H30.3772V6.94882H29.8275V7.48533H29.4405V7.92509H29.8275V9.05528C29.8275 9.57419 30.1221 9.84685 30.6366 9.84685C30.8345 9.84685 31.0324 9.79408 31.1644 9.68853L31.0104 9.29714Z" fill="#EEEEEE"/>
<path d="M31.8936 7.08075C32.1003 7.08075 32.2454 6.93123 32.2454 6.73774C32.2454 6.55744 32.0959 6.42111 31.8936 6.42111C31.6913 6.42111 31.5418 6.56623 31.5418 6.75093C31.5418 6.93563 31.6913 7.08075 31.8936 7.08075ZM31.6166 9.81606H32.1663V7.46774H31.6166V9.81606Z" fill="#EEEEEE"/>
<path d="M34.638 6.55304V7.75798C34.4533 7.5425 34.185 7.44136 33.8816 7.44136C33.2 7.44136 32.6942 7.9119 32.6942 8.6419C32.6942 9.3719 33.2 9.84685 33.8816 9.84685C34.2026 9.84685 34.4753 9.73691 34.66 9.51263V9.81606H35.1877V6.55304H34.638ZM33.9476 9.3763C33.5518 9.3763 33.2483 9.09046 33.2483 8.6419C33.2483 8.19335 33.5518 7.9075 33.9476 7.9075C34.3433 7.9075 34.6468 8.19335 34.6468 8.6419C34.6468 9.09046 34.3433 9.3763 33.9476 9.3763Z" fill="#EEEEEE"/>
<path d="M36.8039 7.44136C36.4257 7.44136 36.0607 7.5381 35.81 7.7316L36.0255 8.13178C36.2014 7.98666 36.4741 7.89871 36.7379 7.89871C37.1293 7.89871 37.3228 8.0878 37.3228 8.40883V8.44401H36.716C36.0035 8.44401 35.7397 8.75184 35.7397 9.14323C35.7397 9.55221 36.0783 9.84685 36.6148 9.84685C36.9666 9.84685 37.2217 9.73251 37.3536 9.53022V9.81606H37.8725V8.43961C37.8725 7.76238 37.4811 7.44136 36.8039 7.44136ZM36.7291 9.44666C36.4477 9.44666 36.2806 9.31913 36.2806 9.12124C36.2806 8.94973 36.3817 8.80901 36.7555 8.80901H37.3228V9.08166C37.2305 9.32353 36.9974 9.44666 36.7291 9.44666Z" fill="#EEEEEE"/>
<path fill-rule="evenodd" clip-rule="evenodd" d="M2.76574 5.17137C2.14475 5.08616 1.57672 4.78986 1.16585 4.33683C0.75497 3.88379 0.528797 3.30439 0.528809 2.7049L0.528809 2.37267C0.528809 1.7308 1.07396 1.20987 1.74567 1.20987H2.68856C2.8471 0.82116 3.24206 0.54541 3.70516 0.54541H8.47803C8.69778 0.545527 8.91237 0.609012 9.09375 0.727563C9.27513 0.846113 9.41485 1.01421 9.49463 1.20987H10.4375C11.1092 1.20987 11.6544 1.7308 11.6544 2.37267V2.7049C11.6544 3.30439 11.4282 3.88379 11.0173 4.33683C10.6065 4.78986 10.0384 5.08616 9.41744 5.17137C9.27063 5.6285 9.02256 6.05007 8.69008 6.40745C8.35761 6.76482 7.94853 7.04962 7.49063 7.24248L7.59076 8.20329C7.59424 8.23651 7.61162 8.28302 7.67003 8.33884C7.72983 8.39665 7.82092 8.4518 7.9294 8.48967C8.12618 8.55811 8.35912 8.67173 8.54826 8.86708C8.74643 9.07307 8.87299 9.34749 8.87299 9.68171V10.1801H9.74217C9.88048 10.1801 10.0131 10.2326 10.1109 10.326C10.2087 10.4195 10.2637 10.5462 10.2637 10.6784C10.2637 10.8106 10.2087 10.9373 10.1109 11.0308C10.0131 11.1242 9.88048 11.1767 9.74217 11.1767H2.44102C2.3027 11.1767 2.17005 11.1242 2.07225 11.0308C1.97445 10.9373 1.9195 10.8106 1.9195 10.6784C1.9195 10.5462 1.97445 10.4195 2.07225 10.326C2.17005 10.2326 2.3027 10.1801 2.44102 10.1801H3.3102V9.68171C3.3102 9.34749 3.43675 9.07307 3.63562 8.86708C3.82337 8.67173 4.057 8.55811 4.25379 8.48967C4.35053 8.45768 4.43897 8.40625 4.51315 8.33884C4.57156 8.28236 4.58895 8.23718 4.59242 8.20329L4.69255 7.24248C4.23479 7.04954 3.82584 6.76471 3.49349 6.40734C3.16114 6.04997 2.91318 5.62844 2.76644 5.17137H2.76574ZM2.61485 2.20656H1.74567C1.69956 2.20656 1.65535 2.22406 1.62275 2.25521C1.59015 2.28636 1.57183 2.32861 1.57183 2.37267V2.7049C1.57183 3.35607 2.00712 3.90956 2.61485 4.11488V2.20656ZM5.71402 7.50229L5.63058 8.30229C5.56591 8.91692 5.03397 9.27905 4.6105 9.42589C4.53248 9.44903 4.4611 9.48905 4.4019 9.54284C4.37617 9.56942 4.35322 9.60463 4.35322 9.68237V10.1807H7.82996V9.68237C7.82996 9.60463 7.80702 9.56942 7.78129 9.54284C7.7221 9.48903 7.65071 9.44901 7.57268 9.42589C7.14922 9.27905 6.61728 8.91692 6.5533 8.30296L6.46986 7.50295C6.21865 7.52893 5.96523 7.52893 5.71402 7.50295V7.50229ZM9.56833 4.11554V2.20656H10.4375C10.4836 2.20656 10.5278 2.22406 10.5604 2.25521C10.593 2.28636 10.6114 2.32861 10.6114 2.37267V2.7049C10.6115 3.01414 10.5112 3.3158 10.3244 3.56832C10.1376 3.82084 9.87344 4.0118 9.56833 4.11488V4.11554ZM3.65788 1.58728C3.65788 1.5627 3.67874 1.5421 3.70516 1.5421H8.47803C8.50376 1.5421 8.52531 1.56203 8.52531 1.58728V4.19993C8.52531 4.81672 8.2689 5.40824 7.81249 5.84438C7.35608 6.28051 6.73706 6.52553 6.09159 6.52553C5.44613 6.52553 4.82711 6.28051 4.37069 5.84438C3.91428 5.40824 3.65788 4.81672 3.65788 4.19993V1.58728Z" fill="#EEEEEE"/>
<path d="M6.0912 2.14014L6.46588 3.24205H7.67835L6.69744 3.92307L7.07211 5.02498L6.0912 4.34396L5.11028 5.02498L5.48496 3.92307L4.50404 3.24205H5.71652L6.0912 2.14014Z" fill="#EEEEEE"/>
</svg>
