<svg width="19" height="7" viewBox="0 0 19 7" fill="none" xmlns="http://www.w3.org/2000/svg">
<path fill-rule="evenodd" clip-rule="evenodd" d="M4.57126 6.69083H2.99512L1.81322 2.18178C1.75712 1.97437 1.638 1.791 1.46279 1.70457C1.02553 1.48739 0.543701 1.31454 0.0180664 1.22737V1.05377H2.5571C2.90752 1.05377 3.17034 1.31454 3.21414 1.6174L3.82738 4.86993L5.40275 1.05377H6.93508L4.57126 6.69083ZM7.81107 6.69083H6.32254L7.54826 1.05377H9.03679L7.81107 6.69083ZM10.9626 2.61547C11.0064 2.31186 11.2692 2.13827 11.5758 2.13827C12.0577 2.09468 12.5825 2.18185 13.0206 2.39829L13.2834 1.1846C12.8454 1.011 12.3635 0.923828 11.9263 0.923828C10.4815 0.923828 9.43027 1.70465 9.43027 2.78832C9.43027 3.61272 10.1749 4.04559 10.7006 4.30637C11.2692 4.56639 11.4882 4.73999 11.4444 5.00001C11.4444 5.39004 11.0064 5.56364 10.5691 5.56364C10.0435 5.56364 9.51787 5.43363 9.03681 5.21644L8.77399 6.43088C9.29963 6.64732 9.8683 6.73449 10.3939 6.73449C12.0139 6.77733 13.0206 5.99726 13.0206 4.82641C13.0206 3.35195 10.9626 3.26553 10.9626 2.61547V2.61547ZM18.23 6.69083L17.0481 1.05377H15.7786C15.5158 1.05377 15.2529 1.22737 15.1653 1.48739L12.9767 6.69083H14.5091L14.8149 5.86718H16.6977L16.8729 6.69083H18.23ZM15.9976 2.57186L16.4348 4.69637H15.2091L15.9976 2.57186Z" fill="#EEEEEE"/>
</svg>
