<svg width="52" height="52" viewBox="0 0 52 52" fill="none" xmlns="http://www.w3.org/2000/svg">
<path d="M26 0C40.3598 0 52 11.6402 52 26C52 40.3598 40.3598 52 26 52C11.6402 52 0 40.3598 0 26C0 11.6402 11.6402 0 26 0ZM35.36 13.52C35.0868 13.3151 34.776 13.1661 34.4453 13.0813C34.1145 12.9966 33.7703 12.9778 33.4323 13.0261C33.0943 13.0744 32.7691 13.1888 32.4753 13.3628C32.1815 13.5367 31.9249 13.7669 31.72 14.04L26 21.6658L20.28 14.04C20.0751 13.7669 19.8185 13.5367 19.5247 13.3628C19.2309 13.1888 18.9057 13.0744 18.5677 13.0261C18.2297 12.9778 17.8855 12.9966 17.5547 13.0813C17.224 13.1661 16.9131 13.3151 16.64 13.52C16.3668 13.7249 16.1367 13.9815 15.9628 14.2753C15.7888 14.5691 15.6744 14.8943 15.6261 15.2323C15.5778 15.5703 15.5966 15.9145 15.6813 16.2453C15.7661 16.576 15.9151 16.8869 16.12 17.16L22.75 26L16.12 34.84C15.7063 35.3916 15.5286 36.0851 15.6261 36.7677C15.7236 37.4503 16.0883 38.0663 16.64 38.48C17.1916 38.8937 17.8851 39.0714 18.5677 38.9739C19.2503 38.8764 19.8663 38.5117 20.28 37.96L26 30.3342L31.72 37.96C32.1337 38.5117 32.7497 38.8764 33.4323 38.9739C34.1149 39.0714 34.8083 38.8937 35.36 38.48C35.9117 38.0663 36.2763 37.4503 36.3739 36.7677C36.4714 36.0851 36.2937 35.3916 35.88 34.84L29.25 26L35.88 17.16C36.0849 16.8869 36.2339 16.576 36.3187 16.2453C36.4034 15.9145 36.4222 15.5703 36.3739 15.2323C36.3256 14.8943 36.2112 14.5691 36.0372 14.2753C35.8633 13.9815 35.6331 13.7249 35.36 13.52Z" fill="url(#paint0_linear_12_41)"/>
<defs>
<linearGradient id="paint0_linear_12_41" x1="0" y1="26" x2="52" y2="26" gradientUnits="userSpaceOnUse">
<stop stop-color="#EFCD7A"/>
<stop offset="1" stop-color="#BF9141"/>
</linearGradient>
</defs>
</svg>
